<?xml version="1.0" encoding="UTF-8" standalone="no"?>
<!DOCTYPE svg PUBLIC "-//W3C//DTD SVG 1.1//EN" "http://www.w3.org/Graphics/SVG/1.1/DTD/svg11.dtd">
<svg width="100%" height="100%" fill="#808080"  viewBox="0 0 93 87" version="1.1" xmlns="http://www.w3.org/2000/svg" xmlns:xlink="http://www.w3.org/1999/xlink" xml:space="preserve" xmlns:serif="http://www.serif.com/" style="fill-rule:evenodd;clip-rule:evenodd;stroke-linejoin:round;stroke-miterlimit:2;">
    <g transform="matrix(1,0,0,1,-0.190476,-0.755997)">
        <g transform="matrix(1,0,0,1,-424.19,-318.756)">
            <g transform="matrix(1,0,0,1,456.381,374.089)">
                <g transform="matrix(1,0,0,1,-32,-32)">
                    <g transform="matrix(0.25,0,0,0.25,0,0)">
                        <path d="M165.249,24L72,24C54.445,24 40,38.445 40,56L40,224C40,228.389 43.611,232 48,232L192,232C196.389,232 200,228.389 200,224C200,219.611 196.389,216 192,216L56,216C56,207.223 63.223,200 72,200L208,200C212.389,200 216,196.389 216,192L216,63.661L200,64.113L200,184L72,184C66.382,183.992 60.861,185.473 56,188.29L56,56C56,47.223 63.223,40 72,40L165.474,40" style="fill-rule:nonzero;"/>
                    </g>
                </g>
            </g>
        </g>
        <g transform="matrix(1,0,0,1,-424.19,-318.756)">
            <g transform="matrix(1,0,0,1,484.399,351.512)">
                <g transform="matrix(1,0,0,1,-32,-32)">
                    <g transform="matrix(0.25,0,0,0.25,0,0)">
                        <path d="M197.587,128C197.587,132.389 193.976,136 189.587,136L136,136L136,189.136C136,193.524 132.389,197.136 128,197.136C123.611,197.136 120,193.524 120,189.136L120,136L69.573,136C65.185,136 61.573,132.389 61.573,128C61.573,123.611 65.185,120 69.573,120L120,120L120,68.67C120,64.282 123.611,60.67 128,60.67C132.389,60.67 136,64.282 136,68.67L136,120L189.587,120C193.976,120 197.587,123.611 197.587,128Z" style="fill-rule:nonzero;"/>
                    </g>
                </g>
            </g>
        </g>
    </g>
</svg>
